<?xml version="1.0" encoding="UTF-8" standalone="no"?>
<!-- Created with Inkscape (http://www.inkscape.org/) -->

<svg
   width="64.805969mm"
   height="10.66916mm"
   viewBox="0 0 64.805969 10.66916"
   version="1.1"
   id="svg5"
   xmlns="http://www.w3.org/2000/svg"
   xmlns:svg="http://www.w3.org/2000/svg">
  <defs
     id="defs2">
    <rect
       x="0"
       y="0"
       width="323.5"
       height="97.5"
       id="rect5511" />
  </defs>
  <g
     id="layer1"
     transform="translate(-0.56488576,-0.23783842)">
    <g
       aria-label="RundesBalli"
       transform="matrix(0.26458333,0,0,0.26458333,0.82682291,-2.778125)"
       id="text5509"
       style="font-size:53.3333px;line-height:1.25;white-space:pre;shape-inside:url(#rect5511)">
      <path
         d="m 35.276646,51.723302 q -2.133332,0 -3.679997,-1.706666 -1.493333,-1.706666 -2.613332,-4.373331 -1.12,-2.666665 -1.973332,-5.49333 -1.973333,-6.453329 -1.653333,-7.679995 -3.146664,4.213331 -5.439996,7.039996 -2.293332,2.773331 -3.733332,4.159997 -6.2933291,6.079996 -12.7466586,6.079996 -1.9199989,0 -3.14666482,-0.799999 -1.27999927,-0.8 -1.27999927,-2.666665 0,-1.173333 0.5333331,-2.506665 0.533333,-1.386666 1.33333249,-2.613332 0.7999995,-1.226666 1.599999,-2.026666 1.759999,-1.759998 2.9333316,-1.759998 0.2133332,0 0.2133332,0.106666 0,0.266667 -0.7999995,0.906666 -1.8666656,1.493333 -3.0933315,3.466665 -1.22666591,1.919999 -1.22666591,3.519998 0,2.986665 4.21333081,2.826665 6.8799954,-0.266667 19.0933224,-16.63999 0.693332,-0.906666 1.173332,-1.28 l -0.853333,-0.319999 q -0.693333,0.266666 -1.119999,0.266666 -1.119999,0 -1.119999,-0.906666 0,-1.226666 1.653332,-1.599999 1.013333,-0.266667 2.613332,0.906666 2.079999,-2.346665 3.999997,-4.479997 1.973333,-2.133332 3.573332,-3.466665 1.599999,-1.386666 2.559998,-1.386666 1.279999,0 1.279999,1.173333 0,0.48 -0.266666,1.013333 -0.213333,0.479999 -0.533333,0.479999 -0.32,0.05333 -0.32,-0.319999 0,-0.266667 0.32,-0.64 v -0.213333 q 0,-0.32 -0.213333,-0.48 -1.386666,-0.906666 -8.533329,9.013328 0.586667,0.05333 1.226666,0.106667 0.693333,0 1.439999,0 12.373326,0 15.466658,-6.399997 0.64,-1.386665 0.64,-2.559998 0,-2.346665 -2.186666,-4.106664 -1.973332,-1.599999 -5.226663,-2.133332 -3.199998,-0.586667 -6.399997,-0.586667 -7.093329,0 -15.093324,3.893331 -9.7066608,4.746664 -9.7066608,11.14666 0,2.079999 2.7199988,2.079999 2.506665,0 5.65333,-2.026665 2.719998,-1.813333 3.733331,-3.679998 0.373333,-0.693333 0.693333,-0.693333 0.373333,0 0.213333,0.426666 -1.013333,2.986665 -4.533331,5.119997 -3.413331,2.079999 -7.0399957,2.079999 -4.3199974,0 -3.9999976,-2.773332 0.7999995,-6.986662 8.5866613,-11.893326 7.733329,-4.85333 18.666656,-4.85333 4.159997,0 8.053328,0.746666 3.946665,0.746666 6.399997,2.773332 2.559998,2.133332 2.559998,5.01333 0,1.226666 -0.586666,2.666665 -0.906666,2.079999 -2.773332,3.573331 -1.866666,1.439999 -4.319997,2.346666 -2.453332,0.906666 -5.173331,1.333332 -2.719998,0.426666 -5.279997,0.426666 -1.386665,0 -2.666665,-0.106666 -1.226666,-0.106667 -2.293332,-0.32 0.32,1.013333 1.12,3.679998 0.799999,2.666665 2.026665,6.933329 0.373333,1.173333 1.013333,2.559999 0.693333,1.386665 1.546666,2.613331 0.853333,1.226666 1.813332,2.026666 1.013333,0.799999 2.026665,0.799999 2.239999,0 3.733332,-4.53333 0.266666,-1.066666 0.586666,-1.066666 0.266666,0 0.48,1.013332 0.05333,0.16 0.05333,0.426667 0,1.386666 -1.493333,3.413331 -1.973332,2.933332 -4.426664,2.933332 z"
         style="font-family:'Alex Brush';-inkscape-font-specification:'Alex Brush';fill:var(--fgColor-default);fill-opacity:1"
         id="path19411" />
      <path
         d="m 42.613248,47.774138 c -1.599999,0 -2.399999,-1.013333 -2.399999,-3.039998 0,-0.782222 0.231111,-1.706666 0.693333,-2.773332 0.497777,-1.102221 1.19111,-2.257776 2.079999,-3.466664 2.927286,-4.18061 2.904897,-3.932199 4.874742,-6.245316 1.380488,-1.466095 2.253191,-2.424346 3.338586,-0.79468 0,0.248889 -0.106666,0.48 -0.319999,0.693333 -0.675555,0.639999 -1.511111,1.546665 -2.506666,2.719998 -0.959999,1.173333 -1.902221,2.435554 -2.826665,3.786665 -0.924443,1.35111 -1.706665,2.648887 -2.346665,3.893331 -0.604444,1.208888 -0.906666,2.186665 -0.906666,2.933331 0,0.64 0.213333,0.96 0.64,0.96 0.248889,0 0.639999,-0.08889 1.173332,-0.266667 0.533333,-0.213333 1.244444,-0.622222 2.133332,-1.226666 0.888889,-0.639999 1.955555,-1.617776 3.199998,-2.933331 0.213333,-0.213333 0.782222,-0.853333 1.706666,-1.919999 0.924444,-1.066666 2.168888,-2.595554 3.733331,-4.586664 2.773332,-3.448887 4.586664,-5.17333 5.439997,-5.17333 1.173333,0 1.813332,0.48 1.919999,1.439999 0.07111,0.319999 -0.675556,1.368888 -2.239999,3.146665 -2.026665,2.453331 -3.413331,4.21333 -4.159997,5.279996 -1.386666,2.026666 -2.079999,3.608887 -2.079999,4.746664 0,0.782222 0.266666,1.173333 0.799999,1.173333 0.533333,0 1.208889,-0.248889 2.026666,-0.746666 0.853333,-0.533333 1.742221,-1.191111 2.666665,-1.973333 0.924444,-0.817777 1.813332,-1.653332 2.666665,-2.506665 0.888889,-0.888888 1.653333,-1.706665 2.293332,-2.453332 0.213333,-0.248889 0.426667,-0.373333 0.64,-0.373333 0.213333,0 0.319999,0.106667 0.319999,0.32 0,0.07111 -0.01778,0.177778 -0.05333,0.32 -0.03555,0.142222 -0.14222,0.302222 -0.32,0.48 -0.568889,0.639999 -1.297777,1.439999 -2.186665,2.399998 -0.888889,0.924444 -1.848888,1.848888 -2.879998,2.773332 -1.031111,0.924444 -2.026666,1.688888 -2.986665,2.293332 -0.959999,0.604444 -1.777777,0.906666 -2.453332,0.906666 -0.817777,0 -1.528888,-0.213333 -2.133332,-0.64 -0.604444,-0.462222 -0.906666,-1.084444 -0.906666,-1.866665 0,-0.782222 0.124444,-1.564444 0.373333,-2.346665 0.248889,-0.817777 0.444444,-1.51111 0.586666,-2.079999 -1.67111,1.955554 -3.146665,3.448886 -4.426664,4.479997 -1.244443,1.031111 -2.293332,1.724444 -3.146665,2.079999 -0.853333,0.391111 -1.528888,0.586666 -2.026665,0.586666 z"
         style="font-family:'Alex Brush';-inkscape-font-specification:'Alex Brush';fill:var(--fgColor-default);fill-opacity:1"
         id="path19413" />
      <path
         d="m 76.373185,47.294138 q -1.439999,0 -2.026665,-0.799999 -0.586667,-0.853333 -0.586667,-2.079999 0,-3.093331 2.133333,-6.613329 l 3.413331,-5.546664 q -3.626665,2.666666 -7.199996,6.666663 -0.959999,1.066666 -2.186665,2.506665 -1.173333,1.439999 -2.613332,3.306665 -1.919999,2.506665 -2.293332,2.506665 -0.746666,0 -1.226666,-0.639999 -0.48,-0.693333 -0.48,-1.226666 0,-0.426667 0.266667,-1.546666 0.266666,-1.173333 0.64,-2.026666 0.373333,-0.906666 0.746666,-1.759999 0.426666,-0.906666 0.799999,-1.759998 l -3.199998,3.359998 q -0.106666,0.106666 -0.639999,0.639999 -0.533333,0.533333 -0.853333,0.533333 -0.266667,0 -0.266667,-0.373333 0,-0.106667 0.106667,-0.266666 0.05333,-0.213334 0.32,-0.48 0.799999,-0.8 1.653332,-1.706666 0.853333,-0.906666 1.759999,-2.079999 0.48,-0.586666 1.439999,-1.759999 0.959999,-1.226665 2.079999,-2.613331 1.173332,-1.386666 2.186665,-2.559999 0.266667,-0.373333 0.586666,-0.48 0.32,-0.159999 0.426667,-0.159999 1.439999,0 1.439999,1.119999 0,0.32 -0.16,0.64 -4.799997,6.613329 -5.759996,10.079994 6.186663,-6.186663 9.919994,-9.279995 3.786664,-3.146665 5.386663,-3.146665 0.853333,0 1.279999,0.266667 0.48,0.266666 0.48,1.013333 0,0.266666 -0.05333,0.426666 -0.16,0.373333 -2.186666,2.986665 -1.226666,1.493332 -2.186665,2.719998 -0.906666,1.226666 -1.493332,2.133332 -0.96,1.493333 -1.44,2.826665 -0.479999,1.279999 -0.479999,2.186666 0,0.373333 0.106666,0.906666 0.106667,0.533333 0.64,0.533333 1.226666,0 3.839998,-2.133332 1.226666,-1.066666 2.293332,-2.133332 1.066666,-1.12 2.026665,-2.186666 0.213333,-0.213333 0.693333,-0.799999 0.48,-0.64 0.586666,-0.64 0.213334,0 0.213334,0.426667 0,0.213333 -0.266667,0.746666 -0.213333,0.479999 -0.48,0.746666 -0.586666,0.693333 -1.759999,1.919999 -1.119999,1.226666 -2.559998,2.506665 -1.386666,1.279999 -2.719998,2.186665 -1.333333,0.906666 -2.346666,0.906666 z"
         style="font-family:'Alex Brush';-inkscape-font-specification:'Alex Brush';fill:var(--fgColor-default);fill-opacity:1"
         id="path19415" />
      <path
         d="m 87.839841,47.454138 q -1.599999,0 -2.719998,-0.853332 -1.119999,-0.906667 -1.279999,-2.186666 -0.213334,-1.706665 0.479999,-3.413331 0.746667,-1.759999 1.973332,-3.359998 1.28,-1.599999 2.719999,-2.986665 5.65333,-5.65333 10.18666,-5.65333 1.546666,0 2.079996,0.8 0.21334,0.266666 0.48,1.226666 5.97333,-9.706661 8.32,-9.706661 0.53333,0 1.12,0.266666 0.58666,0.266667 0.58666,0.693333 0,0.266667 -0.26666,0.693333 -1.6,1.973332 -3.2,3.946664 -1.6,1.919999 -3.14667,3.893331 -2.61333,3.306665 -4.21333,5.759997 -1.599996,2.453332 -2.293329,4.159997 -0.213333,0.533333 -0.426666,1.333333 -0.16,0.746666 -0.16,1.546666 0,1.013332 0.426667,1.759999 0.426666,0.746666 1.546668,0.746666 1.76,0 4.31999,-1.706666 2.56,-1.706665 5.97333,-5.599996 0.21334,-0.213334 0.37334,-0.373334 0.21333,-0.159999 0.42666,-0.213333 0.48,-0.106666 0.48,0.213333 0,0.16 -0.32,0.586667 -1.65333,1.973332 -3.67999,3.893331 -2.02667,1.919999 -4.16,3.199998 -2.08,1.226666 -3.893332,1.226666 -1.813333,0 -2.559999,-1.226666 -0.746666,-1.226666 -0.746666,-2.773332 0,-1.599999 0.586666,-2.933331 l -4.319997,4.319997 q -1.439999,1.439999 -2.666665,2.079999 -1.173333,0.639999 -2.026666,0.639999 z m -0.48,-1.173332 q 2.293332,0 7.626663,-6.29333 0.266666,-0.32 1.866665,-2.346665 1.599999,-2.079999 4.533331,-6.026663 -0.37333,-0.64 -1.28,-0.64 -3.306664,0 -8.853327,5.226664 -5.226664,4.85333 -5.226664,8.159995 0,1.919999 1.333332,1.919999 z"
         style="font-family:'Alex Brush';-inkscape-font-specification:'Alex Brush';fill:var(--fgColor-default);fill-opacity:1"
         id="path19417" />
      <path
         d="m 111.89311,47.880805 q -1.70667,0 -3.09333,-1.066666 -1.38667,-1.12 -1.38667,-2.933332 0,-3.786664 4.64,-8.639995 4.74666,-4.906663 8.47999,-4.906663 1.22667,0 1.97334,0.693333 0.8,0.639999 0.8,1.599999 0,2.986664 -4.74667,5.866663 -4.21333,2.559998 -7.09333,2.559998 -0.42666,0 -0.74666,-0.106666 -0.8,1.439999 -0.8,3.039998 0,2.773331 2.61333,2.773331 2.66666,0 6.87999,-3.573331 3.25334,-2.613332 5.54667,-5.546663 0.48,-0.64 0.85333,-0.64 0.32,0 0.32,0.32 0,0.32 -0.42667,0.906666 -1.49333,1.973332 -3.19999,3.626665 -1.70667,1.653332 -3.68,3.039998 -4.10667,2.986665 -6.93333,2.986665 z m 0.32,-7.999995 q 2.02666,0 5.28,-2.026666 1.06666,-0.746666 2.07999,-1.653332 1.06667,-0.96 1.70667,-1.919999 0.69333,-0.96 0.69333,-1.706666 0,-0.693333 -1.12,-0.693333 -1.6,0 -4.47999,2.399999 -1.38667,1.173333 -2.66667,2.559998 -1.28,1.386666 -2.18666,2.933332 0.32,0.106667 0.69333,0.106667 z"
         style="font-family:'Alex Brush';-inkscape-font-specification:'Alex Brush';fill:var(--fgColor-default);fill-opacity:1"
         id="path19419" />
      <path
         d="m 129.0131,47.294138 q -2.50667,0 -3.73333,-1.653332 -1.17334,-1.653332 -1.92,-4.586664 -0.96,0.96 -1.33333,0.96 -0.26667,0 -0.26667,-0.426667 0,-0.32 0.26667,-0.586666 0,0 1.33333,-1.653332 1.38666,-1.653333 4.64,-4.639998 l 6.71999,-6.293329 q 1.38667,-1.333333 2.18667,-2.026666 0.85333,-0.693333 1.22666,-0.693333 1.70667,0 1.70667,1.28 0,0.639999 -0.69333,1.493332 -0.53334,0.64 -0.8,1.013333 -0.21334,0.32 -0.26667,0.373333 -0.96,1.653332 -1.76,5.919996 -0.58667,3.146665 -1.01333,5.173331 -0.42667,2.026665 -0.69334,2.933331 2.24,-0.05333 4.42667,-1.386666 2.18666,-1.333332 4.69333,-4.37333 0.10667,-0.106667 0.32,-0.32 0.21333,-0.213333 0.42667,-0.213333 0.32,0 0.32,0.266666 0,0.266667 -0.16,0.533333 -0.16,0.266667 -0.32,0.48 -1.65334,1.973332 -3.09334,3.253331 -1.44,1.226666 -3.03999,1.973332 -1.6,0.693333 -3.78667,1.173333 l -1.70666,1.119999 q -0.69334,0.48 -1.65334,0.693333 -0.96,0.213333 -2.02666,0.213333 z m 0.64,-2.719998 q 1.22666,0 2.02666,-0.586666 0.58667,-0.32 1.12,-1.759999 0.58667,-1.493333 1.12,-3.679998 0.42667,-1.866666 0.64,-3.626664 0.26667,-1.813333 0.48,-3.466665 l 0.21333,-1.813332 q -1.22666,0.906666 -3.09333,2.613331 -1.86666,1.706666 -3.67999,3.573332 -1.81334,1.866665 -2.34667,2.773331 -0.53333,0.853333 -0.58667,1.28 -0.21333,2.133332 1.01334,3.413331 1.28,1.279999 3.09333,1.279999 z"
         style="font-family:'Alex Brush';-inkscape-font-specification:'Alex Brush';fill:var(--fgColor-default);fill-opacity:1"
         id="path19421" />
      <path
         d="m 163.28073,49.638894 q -8.42666,0 -11.46666,-5.759997 -5.49333,4.586664 -7.83999,4.586664 -1.12,0 -1.76,-1.066666 -0.58667,-1.066666 -0.58667,-2.399998 0,-3.199998 2.45333,-7.466662 1.06667,-1.866666 2.34667,-3.413332 1.28,-1.546665 2.88,-1.546665 1.54666,0 2.34666,2.559998 l 1.6,5.119997 q 0.85333,-0.906666 1.86667,-2.186665 1.06666,-1.333333 2.34666,-3.093332 l 4.74667,-6.399996 q 8.74666,-11.359993 11.46666,-12.426659 0.96,-0.373333 1.91999,-0.373333 1.06667,0 1.70667,0.479999 0.69333,0.426667 0.69333,1.013333 0,0.959999 -1.54666,1.119999 -1.6,0.906666 -6.24,5.386664 -2.13333,2.079999 -3.46666,3.466664 -1.28,1.333333 -1.76,2.026666 -5.97333,8.319995 -11.04,12.799992 3.25334,6.45333 9.76,6.45333 2.45333,0 4.96,-1.066666 2.55999,-1.013333 4.69333,-2.719999 2.18666,-1.706665 3.51999,-3.786664 1.33334,-2.133332 1.33334,-4.213331 0,-2.186665 -1.54667,-3.946664 -1.54666,-1.759999 -3.78666,-2.506665 0,0 -0.8,-0.106667 -0.8,-0.106667 -2.45333,-0.32 -2.50667,-0.32 -2.50667,-1.013333 0,-0.479999 0.58667,-0.853332 0.64,-0.373333 1.28,-0.373333 0.48,0 1.11999,0.213333 0.64,0.213333 1.12,0.426666 0.53334,0.16 0.53334,0.16 0.42666,0.05333 0.96,0.106667 0.53333,0 1.06666,0 3.52,0 6.4,-1.12 2.77333,-1.119999 4.05333,-3.093331 1.28,-1.973332 1.28,-4.586664 0,-2.666665 -1.70667,-4.213331 -1.65333,-1.546666 -4.42666,-2.186665 -2.72,-0.693333 -5.92,-0.693333 -6.23999,0 -11.89332,1.813332 -5.6,1.813332 -9.70666,6.026663 -3.14667,3.253331 -3.14667,5.439997 0,1.546666 0.8,2.613332 0.21333,0.266666 0.48,0.533333 0.26667,0.266666 0.64,0.533333 0.26667,0.16 -0.32,0.16 -3.30666,-0.746667 -3.30666,-4.426664 0,-3.679998 3.73333,-6.93333 2.87999,-2.506665 6.55999,-4.053331 3.73333,-1.546665 7.84,-2.239998 4.16,-0.693333 8.21333,-0.693333 2.87999,0 5.54666,0.426666 2.66666,0.426667 4.8,1.439999 2.13333,0.96 3.35999,2.559999 1.28,1.599999 1.28,3.946664 0,3.306665 -1.75999,5.279997 -1.76,1.973332 -4.74667,3.039998 -3.52,1.226666 -7.57333,1.279999 2.24,0.106667 3.89333,1.173333 1.70667,1.066666 2.61334,2.773332 0.95999,1.706665 0.95999,3.733331 0,2.719998 -1.65333,5.066664 -1.6,2.293331 -4.32,3.999997 -2.71999,1.653332 -5.97332,2.559999 -3.25334,0.959999 -6.50667,0.959999 z m -18.61332,-2.399999 q 1.70667,0 6.56,-4.85333 l -0.16,-0.213333 q -2.13334,-7.093329 -3.41334,-7.093329 -0.0533,0 -0.26666,0.106666 -3.94667,5.706664 -3.94667,9.173328 0,0.746666 0.26667,1.813332 0.32,1.066666 0.96,1.066666 z"
         style="font-family:'Alex Brush';-inkscape-font-specification:'Alex Brush';fill:var(--fgColor-default);fill-opacity:1"
         id="path19423" />
      <path
         d="m 185.2796,47.454138 q -1.28,0 -2.56,-0.906666 -1.28,-0.906666 -1.44,-2.133332 -0.53333,-4.106664 5.17333,-9.759994 5.65333,-5.65333 10.18666,-5.65333 1.22667,0 1.92,0.586666 0.37333,0.373333 0.53333,1.013333 0.21334,0.64 0.32,0.64 0.21334,0 0.37334,-0.05333 0.16,-0.106666 0.37333,-0.106666 0.64,0 1.12,0.48 0.48,0.479999 0.53333,0.853332 0.0533,0.106667 -3.41333,5.279997 -3.46666,5.066664 -3.14666,6.879996 0.26666,1.226666 1.17333,1.226666 2.77333,0 10.13333,-9.173328 0.16,-0.213333 0.32,-0.213333 0.26666,0 0.26666,0.373333 0,0.426666 -0.48,1.066666 -6.77333,9.119995 -10.39999,9.119995 -0.48,0 -0.90667,-0.16 -2.34666,-0.906666 -2.34666,-3.519998 0,-0.906666 0.21333,-1.813332 l -3.30666,3.199998 q -1.49334,1.493332 -2.72,2.133332 -1.17333,0.639999 -1.92,0.639999 z m -0.48,-1.173332 q 3.09333,0 8.42666,-6.77333 l 5.65333,-7.786662 q -0.42667,-0.746666 -1.38666,-0.746666 -3.25334,0 -8.8,5.226664 -5.76,5.33333 -5.17333,8.799995 0.26667,1.279999 1.28,1.279999 z"
         style="font-family:'Alex Brush';-inkscape-font-specification:'Alex Brush';fill:var(--fgColor-default);fill-opacity:1"
         id="path19425" />
      <path
         d="m 207.73285,47.294138 q -1.54667,0 -2.88,-0.746666 -1.33333,-0.799999 -1.33333,-2.613332 0,-2.506665 1.76,-5.973329 1.81333,-3.466665 4.10666,-7.199996 6.24,-10.133327 8.85333,-10.133327 0.53333,0 1.06667,0.426666 0.58666,0.373333 0.64,0.853333 l -3.73333,5.01333 q -2.18667,2.933332 -3.94667,5.439997 -1.76,2.453332 -3.04,4.426664 -0.64,1.013333 -1.44,2.293332 -0.8,1.279999 -1.44,2.666665 -0.58666,1.333333 -0.58666,2.719998 0,0.64 0.37333,1.173333 0.37333,0.48 1.33333,0.48 1.70667,0 4.48,-1.813332 2.77333,-1.866666 5.49333,-5.119997 0.26667,-0.32 0.58667,-0.586667 0.32,-0.266666 0.53333,-0.266666 0.26667,0 0.26667,0.32 0,0.16 -0.37334,0.639999 -0.32,0.426667 -0.53333,0.693333 l -1.28,1.439999 q -1.06666,1.173333 -2.56,2.559999 -1.44,1.386666 -3.09333,2.346665 -1.6,0.959999 -3.25333,0.959999 z"
         style="font-family:'Alex Brush';-inkscape-font-specification:'Alex Brush';fill:var(--fgColor-default);fill-opacity:1"
         id="path19427" />
      <path
         d="m 220.69275,47.294138 q -1.54667,0 -2.88,-0.746666 -1.33333,-0.799999 -1.33333,-2.613332 0,-2.506665 1.76,-5.973329 1.81333,-3.466665 4.10666,-7.199996 6.24,-10.133327 8.85333,-10.133327 0.53333,0 1.06667,0.426666 0.58666,0.373333 0.64,0.853333 l -3.73333,5.01333 q -2.18667,2.933332 -3.94667,5.439997 -1.76,2.453332 -3.04,4.426664 -0.64,1.013333 -1.44,2.293332 -0.8,1.279999 -1.44,2.666665 -0.58666,1.333333 -0.58666,2.719998 0,0.64 0.37333,1.173333 0.37333,0.48 1.33333,0.48 1.70667,0 4.48,-1.813332 2.77333,-1.866666 5.49333,-5.119997 0.26667,-0.32 0.58667,-0.586667 0.32,-0.266666 0.53333,-0.266666 0.26667,0 0.26667,0.32 0,0.16 -0.37334,0.639999 -0.32,0.426667 -0.53333,0.693333 l -1.28,1.439999 q -1.06666,1.173333 -2.56,2.559999 -1.44,1.386666 -3.09333,2.346665 -1.6,0.959999 -3.25333,0.959999 z"
         style="font-family:'Alex Brush';-inkscape-font-specification:'Alex Brush';fill:var(--fgColor-default);fill-opacity:1"
         id="path19429" />
      <path
         d="m 241.38596,28.840816 q -0.90666,0 -1.6,-0.586666 -0.63999,-0.586666 -0.63999,-1.333333 0,-1.493332 2.02666,-1.493332 0.74667,0 1.49333,0.533333 0.74667,0.48 0.74667,1.226666 0,0.639999 -0.69333,1.173332 -0.69334,0.48 -1.33334,0.48 z m -9.86666,18.933322 q -1.17333,0 -1.92,-0.746666 -0.8,-0.8 -0.8,-2.773332 0,-1.119999 0.53334,-2.559998 0.48,-1.493333 1.22666,-2.986665 0.8,-1.493333 1.54667,-2.666665 2.98666,-4.853331 4.90666,-4.906664 0.48,0 1.17334,0.426667 0.69333,0.373333 0.69333,0.853332 0,0 -4.05333,5.226664 -4,5.17333 -4,7.359996 0,1.706665 1.33333,1.706665 0.85334,0 2.18667,-0.693333 1.38666,-0.746666 2.88,-1.866665 1.49333,-1.12 2.82666,-2.399999 1.38667,-1.279999 2.24,-2.346665 0.53333,-0.693333 0.90667,-0.96 0.42666,-0.266666 0.53333,-0.266666 0.21333,0 0.21333,0.32 0,0.266666 -0.64,1.066666 -0.58666,0.799999 -1.65333,1.866665 -1.28,1.28 -2.82666,2.773332 -1.54667,1.493332 -3.36,2.559998 -1.81333,1.013333 -3.94667,1.013333 z"
         style="font-family:'Alex Brush';-inkscape-font-specification:'Alex Brush';fill:var(--fgColor-default);fill-opacity:1"
         id="path19431" />
    </g>
  </g>
</svg>
